REM MD5 182d5bcd417b37233dd8899700444ed8
FILE "Colin McRae - The Rally (Japan).bin" BINARY
  TRACK 01 MODE2/2352
    INDEX 01 00:00:00
  TRACK 02 AUDIO
    INDEX 00 28:36:53
    INDEX 01 28:38:53
  TRACK 03 AUDIO
    INDEX 00 33:52:53
    INDEX 01 33:54:53
  TRACK 04 AUDIO
    INDEX 00 36:52:03
    INDEX 01 36:54:03
REM LEADOUT 42:08:01
